PathFileType	4	(X/Y/Z)	C:\Users\WrightLab\Desktop\Jo\P3_4.trc
DataRate	CameraRate	NumFrames	NumMarkers	Units	OrigDataRate	OrigDataStartFrame	OrigNumFrames
100.00	100.00	       12	19	mm	100.00	480	       639
Frame#	Time	Headset_Front			Headset_Back			Headset_Left			Headset_Right			Left_Shoulder			Right_Shoulder			Sternum			C7			Left Elbow			Right Elbow			Left Wrist			Right Wrist			Left ASIS			Right ASIS			S2			Left Knee			Right Knee			Left Ankle			Right Ankle			
		X1	Y1	Z1	X2	Y2	Z2	X3	Y3	Z3	X4	Y4	Z4	X5	Y5	Z5	X6	Y6	Z6	X7	Y7	Z7	X8	Y8	Z8	X9	Y9	Z9	X10	Y10	Z10	X11	Y11	Z11	X12	Y12	Z12	X13	Y13	Z13	X14	Y14	Z14	X15	Y15	Z15	X16	Y16	Z16	X17	Y17	Z17	X18	Y18	Z18	X19	Y19	Z19	

480	4.790	-151.61958	1570.67944	2067.56177	24.76562	1611.98804	1959.87207							121.08757	1384.41858	1960.36536	-197.93513	1384.30408	1802.88123	-91.98363	1277.31628	2010.81921				186.83408	1057.53674	2009.51648	-279.34158	1041.85291	1790.95056	135.76952	880.60822	2111.66333	-338.20612	895.59808	1970.54700	11.08589	915.54272	2055.86816	-217.27600	907.02026	1943.89636				22.66678	516.33588	2159.37085	-143.19044	476.56827	1944.54541	78.80692	199.82619	2061.51489	-65.05244	150.04108	1892.64172	
481	4.800	-154.46231	1570.33984	2073.10059	22.97957	1611.70349	1967.64294							118.74597	1384.22998	1967.66187	-199.20773	1384.71484	1808.24829	-94.87397	1277.33203	2016.56140				184.06606	1057.24512	2017.30005	-280.26233	1041.69604	1795.29504	133.24594	880.81274	2119.51172	-340.97717	897.28491	1975.48462	10.69339	915.83624	2066.94531	-218.80840	907.39050	1947.74524				17.59925	518.37897	2169.79810	-144.79825	476.50925	1947.41724	70.24685	196.41354	2085.96460	-65.42960	150.38782	1893.17993	
482	4.810	-157.80238	1570.22119	2079.08521	20.32780	1611.38354	1974.44763							116.44083	1384.51001	1976.59729	-200.22972	1384.66675	1812.83130	-97.73962	1276.55151	2022.19482				181.66718	1057.01758	2025.67310	-8.78086	975.96350	1821.47437	130.15273	879.99768	2125.89941	-344.19089	898.14319	1980.31885	1.29527	914.14642	2068.80103	-221.49870	908.11920	1952.55176				10.98988	516.89606	2174.47168	-144.85358	476.50479	1949.11743	60.78011	192.67479	2109.30371	-65.62835	150.70782	1893.66443	
483	4.820	-160.91663	1569.86169	2084.74585	17.67544	1611.05115	1981.76978							114.12071	1383.61987	1983.88635	-200.61568	1384.24243	1818.39709	-101.01125	1276.80688	2028.44775				179.09314	1057.10242	2034.34009	-9.24443	975.46710	1828.42395	126.93620	878.83582	2132.94849	-347.84497	899.58264	1985.48218	-2.62392	913.72552	2075.36963	-223.11665	907.39178	1955.67505				7.31110	518.01770	2184.31763	-145.96124	476.00323	1951.56665	51.31041	190.07999	2133.41479	-65.95575	151.18912	1894.37842	
484	4.830	-164.24815	1569.57117	2090.69263	15.32049	1611.45239	1990.28870							111.65683	1383.78271	1993.11353	-201.34612	1384.55688	1822.90442	-103.77402	1275.68994	2034.04968				176.28075	1056.25952	2041.51685	-9.72847	976.46747	1835.50623	123.42289	878.17261	2141.02759	-350.46350	900.55688	1989.61169	-6.10368	912.60590	2082.21973	-224.97997	907.37097	1958.53381				-0.27225	515.80243	2187.53003	-147.11151	475.81229	1953.38684	41.63742	186.73050	2154.87036	-66.06776	151.45297	1894.78528	
485	4.840	-167.52669	1569.13501	2096.41602	13.00918	1610.68640	1996.40320							108.84816	1382.74695	2001.31506	-202.08650	1383.84216	1827.00378	-106.82360	1275.36768	2039.70032				173.74817	1055.83459	2050.32202	-9.45139	975.78571	1841.84302	120.15349	878.12225	2149.04346	-353.04962	901.29846	1993.41296	-10.02965	911.89795	2089.19287	-227.60973	906.91077	1962.55115				-5.83034	515.11725	2193.83301	-148.82330	475.28149	1956.45154	32.08750	184.85985	2177.08691	-66.45858	151.66020	1895.19824	
486	4.850	-170.99167	1568.64307	2102.41162	10.48374	1610.03723	2003.44531							106.62317	1382.92810	2009.77356	-202.60811	1383.17615	1833.31091	-109.76017	1274.85400	2045.92383				170.93570	1055.89478	2059.44727	-9.73966	976.25281	1849.00647	116.79207	877.27533	2156.33960	-355.77640	902.78046	1997.53613	-14.22249	911.60931	2096.14429	-229.54315	907.07465	1965.47656				-10.80821	514.94403	2200.24023	-150.17937	474.67200	1959.27344	20.94048	184.54939	2198.56128	-66.73506	151.77451	1895.51196	
487	4.860	-174.35104	1568.39819	2107.66943	7.92744	1609.78796	2012.00781							103.77988	1382.38354	2018.42944	-203.13461	1382.89905	1838.04541	-112.85882	1273.86108	2051.40820				168.02248	1054.90405	2067.09863	-9.62984	975.87830	1855.26013	112.40162	876.76044	2163.97095	-357.82285	902.84015	2001.19885	-18.57713	910.76343	2103.10742	-232.02725	906.55341	1968.29346				-16.75658	514.17407	2207.76416	-151.50864	474.46423	1961.63892	11.92295	183.43637	2218.25586	-67.10770	151.85208	1895.87952	
488	4.870	-178.07936	1567.50964	2113.86523	5.02280	1609.46362	2019.24060							100.87405	1381.75989	2027.94666	-203.98882	1382.38879	1842.19641	-116.14574	1273.75769	2057.90161				165.29079	1054.21436	2075.02393	-9.53659	974.70776	1861.92334	108.58102	875.34741	2170.62866	-360.76306	904.21716	2005.82190	-22.74458	909.49255	2109.72095	-234.32593	905.92242	1972.45886				-22.76987	513.94745	2214.61914	-153.87111	473.61087	1965.98511	1.12109	184.27200	2238.10254	-67.64876	152.11900	1896.49304	
489	4.880	-181.64832	1567.37488	2119.04761	2.66187	1608.04919	2025.34937							98.20779	1381.40308	2036.24512	-204.27927	1381.84351	1848.82727	-118.68414	1272.18164	2062.87036				162.16461	1053.44434	2084.46680	-9.48841	974.20880	1870.96326	103.89537	874.68201	2178.17529	-362.97192	904.09296	2009.04968	-27.37769	908.73383	2116.71240	-236.08788	905.25281	1974.53882				-28.31664	513.84094	2221.05786	-155.20181	472.99368	1968.30725	-9.45705	183.25267	2254.47803	-68.25691	152.28194	1897.00537	
490	4.890	-185.44145	1566.33191	2124.85791	0.06368	1607.82996	2033.80835							95.30025	1380.85962	2045.11804	-204.75375	1380.10925	1853.11230	-122.09904	1271.14868	2069.41968				159.13000	1053.56763	2093.30176	-9.65890	973.53668	1875.53308	98.64279	873.82281	2186.07300	-365.69589	903.96002	2011.63953	-31.40555	906.67242	2123.12183	-238.46492	904.62671	1978.40710				-33.35162	512.32129	2227.60132	-156.78751	472.22232	1972.56287	-20.00768	184.76714	2272.31982	-68.09785	151.46304	1898.59595	
491	4.900	-189.08273	1565.95923	2130.13501	-3.00345	1607.20166	2041.42505							92.23341	1380.50867	2055.17529	-205.71190	1379.35925	1860.52441	-125.52008	1270.51855	2076.26318				155.48656	1051.27539	2100.94702	-9.53381	972.75507	1882.91980	92.84873	873.12097	2193.58862	-367.79364	903.76294	2014.01855	-36.03278	905.76343	2129.50024	-240.18221	903.62170	1981.25659				-39.24379	512.39581	2234.51660	-158.90193	471.95929	1976.00098	-30.72548	187.64919	2290.31274	-68.49977	151.47311	1899.09473	
